<?xml version="1.0" encoding="UTF-8" standalone="no"?>
<!DOCTYPE svg PUBLIC "-//W3C//DTD SVG 1.1//EN" "http://www.w3.org/Graphics/SVG/1.1/DTD/svg11.dtd">
<svg width="100%" height="100%" viewBox="0 0 602 602" version="1.1" xmlns="http://www.w3.org/2000/svg" xmlns:xlink="http://www.w3.org/1999/xlink" xml:space="preserve" xmlns:serif="http://www.serif.com/" style="fill-rule:evenodd;clip-rule:evenodd;stroke-linejoin:round;stroke-miterlimit:1.41421;">
    <g transform="matrix(1,0,0,1,-1241.85,-2152.26)">
        <g>
            <g transform="matrix(4.16667,0,0,4.16667,1843.66,2754.1)">
                <path d="M0,-73.021C0,-72.755 0.008,-72.489 0.008,-72.219C0.008,-32.342 -32.334,0 -72.215,0C-77.153,0 -81.973,-0.497 -86.637,-1.444L-73.663,-23.538C-73.181,-23.523 -72.7,-23.515 -72.215,-23.515C-45.316,-23.515 -23.503,-45.324 -23.503,-72.219C-23.503,-72.489 -23.511,-72.755 -23.515,-73.021L0,-73.021Z" style="fill:rgb(0,124,195);"/>
            </g>
            <g transform="matrix(4.16667,0,0,4.16667,1542.77,2715.74)">
                <path d="M0,-135.235C31.939,-135.235 59.037,-114.49 68.564,-85.74L43.089,-85.74C34.924,-101.191 18.69,-111.724 0,-111.724C-26.899,-111.724 -48.712,-89.911 -48.712,-63.012C-48.712,-44.591 -38.473,-28.554 -23.382,-20.279L-35.288,0C-57.324,-12.367 -72.223,-35.953 -72.223,-63.012C-72.223,-102.893 -39.881,-135.235 0,-135.235" style="fill:rgb(108,110,112);"/>
            </g>
            <g transform="matrix(4.16667,0,0,4.16667,1542.77,2551.16)">
                <circle cx="0" cy="-23.515" r="23.515" style="fill:rgb(108,110,112);"/>
            </g>
        </g>
    </g>
</svg>
