<?xml version="1.0" encoding="UTF-8" standalone="no"?>
<!DOCTYPE svg PUBLIC "-//W3C//DTD SVG 1.1//EN" "http://www.w3.org/Graphics/SVG/1.1/DTD/svg11.dtd">
<svg width="100%" height="100%" viewBox="0 0 454 266" version="1.1" xmlns="http://www.w3.org/2000/svg" xmlns:xlink="http://www.w3.org/1999/xlink" xml:space="preserve" xmlns:serif="http://www.serif.com/" style="fill-rule:evenodd;clip-rule:evenodd;stroke-linejoin:round;stroke-miterlimit:2;">
    <g transform="matrix(1,0,0,1,-37.923,-109.774)">
        <g>
            <g transform="matrix(0.407143,0,0,0.407143,22.4829,65.0803)">
                <path d="M781.326,215.335C809.411,215.76 834.317,193.988 834.313,162.362C834.309,132.779 810.356,109.765 781.452,109.774C752.189,109.783 728.48,133.074 728.471,161.874C728.461,192.415 751.118,215.335 781.326,215.335Z" style="fill-rule:nonzero;"/>
            </g>
            <g transform="matrix(0.407143,0,0,0.407143,22.4829,65.0803)">
                <path d="M362.742,309.169C371.908,292.335 375.545,274.023 375.835,255C376.024,242.691 375.14,230.533 370.185,218.983C368.268,214.512 365.347,211.222 361.006,209.097C353.373,205.359 345.418,205.148 337.247,206.701C328.631,208.35 322.712,212.997 319.924,221.512C316.542,231.846 315.482,242.491 315.395,253.253C315.259,269.26 315.37,285.26 315.347,301.267C315.342,305.239 314.937,305.695 311.526,305.705C290.985,305.741 270.446,305.765 249.905,305.784C249.507,305.756 249.111,305.686 248.718,305.686C236.965,305.671 225.21,305.658 213.454,305.643L213.454,305.646C211.518,305.643 209.581,305.642 207.646,305.639C204.617,305.635 203.856,305.025 203.881,302.076C204.014,282.995 203.332,263.902 205.166,244.84C206.941,226.392 210.936,208.479 217.255,191.075C221.032,180.676 225.878,170.968 232.056,162.131C234.225,159.029 236.565,156.037 239.077,153.16C241.84,149.995 244.805,146.963 248.012,144.091C248.571,143.59 249.03,143.031 249.416,142.424C249.702,141.974 249.953,141.501 250.152,140.991C250.153,140.991 250.155,140.99 250.157,140.99C249.635,133.831 249.959,126.671 249.856,119.508C249.806,115.84 249.48,115.516 245.939,115.516C210.743,115.507 175.547,115.512 140.35,115.503C137.18,115.503 136.244,116.038 135.206,118.993C129.364,135.643 117.906,147.28 102.462,155.119C83.798,164.599 63.991,170.167 43.033,171.438C38.24,171.729 37.923,172.103 37.923,176.816L37.923,244.9C37.923,250.823 37.931,250.828 43.904,250.832L116.529,250.832C121.409,250.832 121.538,250.961 121.538,255.957L121.538,640.532C121.538,645.132 121.696,645.285 126.178,645.285C148.394,645.295 170.611,645.303 192.824,645.312C192.876,644.753 192.972,644.205 192.977,643.655C193.092,631.486 193.152,619.316 193.328,607.147C193.4,602.061 193.448,596.948 193.976,591.908C194.206,589.718 194.454,587.529 194.696,585.341C195.222,580.585 195.77,575.832 196.387,571.088C197.288,564.16 198.308,557.25 199.52,550.366C199.954,547.895 200.438,545.44 200.95,542.994C201.108,542.232 201.28,541.476 201.446,540.718C201.804,539.077 202.176,537.441 202.568,535.81C202.801,534.836 203.039,533.865 203.283,532.894C203.63,531.52 203.993,530.15 204.362,528.783C204.657,527.688 204.945,526.592 205.254,525.501C205.532,524.522 205.83,523.548 206.119,522.572C206.961,519.718 207.847,516.877 208.779,514.05C208.924,513.612 209.063,513.171 209.21,512.733C209.8,510.97 210.412,509.215 211.035,507.463C211.16,507.113 211.284,506.764 211.41,506.414C213.646,500.193 216.057,494.027 218.663,487.923C225.211,472.593 233.798,458.389 243.329,444.751C245.831,441.169 248.615,437.793 250.192,433.657C251.328,433.31 252.048,432.464 252.685,431.537C255.168,427.913 258.197,424.768 261.094,421.491C275.132,405.617 290.232,390.761 305.333,375.938C317.722,363.774 330.069,351.602 341.368,338.418C349.238,329.222 356.934,319.825 362.742,309.169Z" style="fill-rule:nonzero;"/>
                <path d="M443.831,537.85C445.923,537.967 446.644,537.175 446.274,534.969C445.729,531.77 445.32,528.51 445.236,525.261C444.739,505.913 445.038,486.56 444.973,467.216C444.95,461.707 444.968,461.707 450.526,461.707L554.682,461.707C555.478,461.707 556.278,461.712 557.074,461.752C560.65,461.946 560.83,462.14 560.835,465.686C560.871,482.573 560.835,499.45 560.972,516.328C561.042,524.393 561.886,532.369 565.466,539.794C568.549,546.187 573.09,550.887 580.127,552.82C585.109,554.188 590.184,554.425 595.276,553.873C602.367,553.108 608.587,550.482 612.601,544.257C615.954,539.066 618.091,533.322 619.073,527.197C620.27,519.695 619.545,512.106 619.752,504.559C620.037,493.982 619.694,483.397 619.599,472.811C619.522,464.291 619.406,455.775 617.588,447.404C616.322,441.572 614.834,435.788 612.051,430.46C606.444,419.734 596.728,414.811 585.642,411.706C574.172,408.501 562.426,408.164 550.65,407.898C546.442,407.794 546.102,407.492 546.024,403.208C546.019,402.885 546.024,402.565 546.024,402.245C546.024,376.609 546.024,350.967 546.033,325.328C546.033,324.452 546.184,323.576 546.144,322.705C546.029,320.194 547.305,319.434 549.661,319.465C555.634,319.557 561.601,319.553 567.574,319.481C575.662,319.384 583.673,318.453 591.11,315.133C607.741,307.709 616.23,296.787 615.635,279.177C615.181,265.89 615.501,252.585 615.558,239.284C615.586,233.768 615.028,228.338 613.763,222.969C611.868,214.933 607.489,209.125 599.208,206.908C594.376,205.624 589.491,205.411 584.542,206.287C576.367,207.73 570.395,212.001 566.803,219.591C564.222,225.044 563.356,230.874 563.228,236.745C562.974,248.447 563.122,260.158 563.09,271.864C563.079,275.646 562.549,276.191 558.868,276.191L498.424,276.191C497.787,276.191 497.153,276.2 496.511,276.191C494.862,276.173 493.939,276.693 493.74,278.615C493.261,283.28 492.707,287.947 491.848,292.552C485.789,324.952 470.946,353.049 449.848,378.071C439.307,390.563 427.32,401.652 415.692,413.084C402.64,425.911 388.972,438.117 376.261,451.303C364.947,463.046 353.549,474.716 343.848,487.912C333.285,502.261 323.818,517.188 318.21,534.265C317.15,537.483 317.408,537.852 320.795,537.852L442.394,537.852C442.871,537.85 443.351,537.823 443.831,537.85Z" style="fill-rule:nonzero;"/>
                <g>
                    <path d="M857.281,695.547C850.24,695.547 846.246,702.52 846.246,710.982C846.178,719.58 850.376,726.282 857.349,726.282C864.322,726.282 868.316,719.648 868.316,710.779C868.316,702.587 864.389,695.547 857.281,695.547Z" style="fill-rule:nonzero;"/>
                    <path d="M1010.08,695.818L1009.94,695.818C1009.26,698.526 1008.59,701.978 1007.84,704.619L1005.13,714.3L1015.22,714.3L1012.38,704.619C1011.57,701.911 1010.75,698.526 1010.08,695.818Z" style="fill-rule:nonzero;"/>
                    <path d="M805.288,695.547C803.055,695.547 801.565,695.749 800.617,695.953L800.617,706.446L809.688,706.446L809.688,714.502L800.617,714.502L800.617,726.146C801.565,726.282 802.987,726.282 804.205,726.282C813.683,726.282 819.708,721.272 819.708,710.102C819.708,700.218 814.225,695.547 805.288,695.547Z" style="fill-rule:nonzero;"/>
                    <path d="M526.846,695.818L526.711,695.818C526.034,698.526 525.357,701.978 524.612,704.619L521.904,714.3L531.991,714.3L529.148,704.619C528.335,701.911 527.523,698.526 526.846,695.818Z" style="fill-rule:nonzero;"/>
                    <path d="M717.281,695.818L717.146,695.818C716.469,698.526 715.792,701.978 715.047,704.619L712.339,714.3L722.426,714.3L719.583,704.619C718.77,701.911 717.958,698.526 717.281,695.818Z" style="fill-rule:nonzero;"/>
                    <path d="M1152.62,312.007C1152.62,307.849 1152.53,303.688 1152.4,299.53C1151.89,283.116 1148.52,267.423 1140.74,252.94C1131.1,234.976 1117.42,221.679 1097.96,215.645C1085.12,211.671 1071.9,210.684 1058.55,211.911C1045.78,213.093 1033.53,216.259 1022.37,222.937C1007.16,232.018 995.926,245.18 986.565,260.199C985.808,261.427 985.165,262.744 983.805,263.794C983.153,262.617 983.198,261.508 983.198,260.349C983.211,247.859 983.153,235.369 983.143,222.886C983.143,221.34 982.334,220.659 980.993,220.497C980.124,220.389 979.241,220.375 978.365,220.375L873.265,220.375C870.241,220.375 869.619,220.969 869.466,224.014C869.44,224.667 869.457,225.318 869.457,225.975L869.457,649.642L846.005,649.642C845.995,621.466 845.926,593.3 845.558,565.151C845.262,542.233 845.153,519.297 845.068,496.371C844.91,455.961 845.031,415.554 844.756,375.141C844.509,339.874 844.622,304.607 844.576,269.34C844.549,254.883 844.532,240.432 844.446,225.985C844.413,221.922 844.116,221.675 840.201,221.675C805.087,221.666 769.969,221.682 734.85,221.687C734.815,222.39 734.796,223.093 734.788,223.796C734.761,228.65 735.331,233.482 735.529,238.325C735.635,240.955 735.671,243.584 735.659,246.211C735.659,254.003 735.209,261.779 734.624,269.548C734.002,277.826 733.22,286.102 731.311,294.204C731.014,295.46 730.68,296.708 730.339,297.954L730.288,295.985C729.36,299.284 728.398,302.574 728.008,305.999C727.063,307.397 726.649,309.024 726.072,310.576C724.07,316.034 721.833,321.36 718.693,326.302C710.59,339.064 699.236,348.212 686.336,355.696C685.176,356.373 683.042,356.488 683.181,358.137C683.307,359.584 685.337,359.782 686.574,360.392C699.348,366.654 710.428,374.931 718.647,386.772C722.239,391.957 725.091,397.538 727.99,403.101C728.486,405.657 729.322,408.115 730.429,410.464C731.42,412.557 732.192,414.713 732.824,416.936C737.896,434.668 738.908,452.909 739.427,471.187C739.917,488.541 739.125,505.856 737.036,523.088C735.839,533.017 734.624,542.944 732.279,552.69C730.978,558.075 728.466,563.126 728.026,568.733C726.338,570.893 725.668,573.546 724.654,576.019C713.344,603.897 694.054,623.708 665.885,634.826C651.771,640.398 637.179,643.493 622.156,644.916C610.113,646.06 598.088,647.212 585.968,646.699C563.478,645.754 541.29,643.16 520.123,634.852C515.897,633.197 511.786,631.314 507.85,629.047C507.301,628.732 506.749,628.389 506.149,628.2C504.878,627.777 504.029,627.911 504.063,629.64C504.159,634.878 504.072,640.144 504.218,645.392C504.288,647.814 503.964,648.867 502.408,649.3L513.987,649.642L437.493,649.642L437.493,762.15L1152.63,762.15L1152.63,649.642C1152.63,537.118 1152.63,424.565 1152.62,312.007ZM528.471,672.055C532.127,672.055 535.037,674.696 535.037,677.81C535.037,681.804 531.787,682.549 529.892,685.934L525.153,684.918C526.169,681.871 528.47,681.33 528.47,679.096C528.47,677.877 527.59,677.065 526.507,677.065C525.221,677.065 524.07,678.419 523.461,679.367L520.211,677.404C521.769,674.29 524.341,672.055 528.471,672.055ZM484.399,734.406C479.186,734.406 474.041,733.052 471.468,731.631L473.567,723.101C476.342,724.523 480.608,725.945 485.008,725.945C489.747,725.945 492.252,723.981 492.252,721.003C492.252,718.159 490.085,716.535 484.602,714.571C477.02,711.931 472.078,707.734 472.078,701.099C472.078,693.314 478.577,687.356 489.341,687.356C494.486,687.356 498.277,688.44 500.985,689.658L498.683,697.985C496.855,697.105 493.606,695.819 489.138,695.819C484.67,695.819 482.504,697.849 482.504,700.219C482.504,703.13 485.076,704.416 490.966,706.651C499.022,709.63 502.813,713.827 502.813,720.257C502.813,727.907 496.924,734.406 484.399,734.406ZM537.001,733.729L533.48,722.017L520.415,722.017L517.165,733.729L506.468,733.729L520.414,688.1L533.954,688.1L548.103,733.729L537.001,733.729ZM591.972,733.729L581.14,733.729L571.391,716.127C568.683,711.252 565.704,705.362 563.47,700.015L563.267,700.082C563.538,706.107 563.673,712.539 563.673,719.985L563.673,733.728L554.195,733.728L554.195,688.1L566.245,688.1L575.723,704.822C578.431,709.629 581.139,715.315 583.17,720.46L583.373,720.46C582.696,714.436 582.493,708.274 582.493,701.438L582.493,688.1L591.971,688.1L591.971,733.729L591.972,733.729ZM729.399,671.785L738.267,671.785L729.196,679.503L724.254,679.503L729.399,671.785ZM714.438,677.336L721.614,677.336L727.707,685.662L721.072,685.662L718.093,681.397L717.957,681.397L714.911,685.662L708.345,685.662L714.438,677.336ZM638.616,733.729L634.486,725.469C632.794,722.287 631.711,719.918 630.424,717.278L630.289,717.278C629.341,719.919 628.19,722.288 626.769,725.469L622.977,733.729L611.198,733.729L624.399,710.644L611.671,688.1L623.518,688.1L627.512,696.427C628.866,699.202 629.882,701.437 630.965,704.009L631.101,704.009C632.184,701.098 633.064,699.067 634.215,696.427L638.074,688.1L649.854,688.1L636.991,710.372L650.531,733.728L638.616,733.728L638.616,733.729ZM693.315,713.69C693.315,727.771 686.207,734.473 674.292,734.473C662.783,734.473 656.013,728.11 656.013,713.554L656.013,688.1L666.371,688.1L666.371,714.367C666.371,722.221 669.35,726.215 674.63,726.215C680.046,726.215 683.025,722.424 683.025,714.367L683.025,688.1L693.315,688.1L693.315,713.69ZM727.436,733.729L723.915,722.017L710.85,722.017L707.6,733.729L696.904,733.729L710.85,688.1L724.39,688.1L738.539,733.729L727.436,733.729ZM770.627,696.765L758.171,696.765L758.171,733.729L747.813,733.729L747.813,696.765L735.56,696.765L735.56,688.1L770.628,688.1L770.628,696.765L770.627,696.765ZM823.093,728.449C818.286,732.443 810.975,734.406 802.039,734.406C796.69,734.406 792.899,734.067 790.327,733.729L790.327,714.502L785.52,714.502L785.52,706.446L790.327,706.446L790.327,688.573C794.118,687.964 799.06,687.557 804.273,687.557C812.871,687.557 818.558,689.047 822.958,692.364C827.696,695.885 830.608,701.707 830.608,709.762C830.608,718.632 827.494,724.725 823.093,728.449ZM875.424,696.495C877.59,699.948 879.215,704.552 879.215,710.441C879.215,725.402 870.143,734.473 856.807,734.473C843.267,734.473 835.347,724.251 835.347,711.252C835.347,697.577 844.08,687.355 857.552,687.355C861.005,687.355 863.78,688.033 865.879,688.709C868.112,689.522 870.753,691.078 872.581,691.078C874.273,691.078 875.086,690.198 875.086,688.37C875.086,686.543 874.409,684.849 873.597,683.429L880.909,682.143C881.789,683.903 882.534,686.205 882.534,689.048C882.532,693.177 880.298,696.359 875.424,696.495ZM923.761,733.729L912.929,733.729L903.181,716.127C900.473,711.252 897.494,705.362 895.26,700.015L895.057,700.082C895.328,706.107 895.463,712.539 895.463,719.985L895.463,733.728L885.985,733.728L885.985,688.1L898.035,688.1L907.513,704.822C910.221,709.629 912.929,715.315 914.96,720.46L915.163,720.46C914.486,714.436 914.283,708.274 914.283,701.438L914.283,688.1L923.761,688.1L923.761,733.729ZM984.012,733.729L973.722,733.729L973.722,714.638L956.73,714.638L956.73,733.729L946.372,733.729L946.372,688.1L956.73,688.1L956.73,705.634L973.722,705.634L973.722,688.1L984.012,688.1L984.012,733.729ZM1020.23,733.729L1016.71,722.017L1003.64,722.017L1000.39,733.729L989.699,733.729L1003.64,688.1L1017.18,688.1L1031.33,733.729L1020.23,733.729ZM998.906,677.336L1009.74,677.336L1015.43,685.527L1007.17,685.527L998.906,677.336ZM1035.08,649.642L987.311,649.642L987.311,365.815C987.311,359.457 987.194,353.09 987.887,346.75C988.658,339.774 990.322,333.155 994.639,327.492C997.596,323.618 1001.31,321.003 1006.12,320.272C1009.83,319.704 1013.58,319.771 1017.3,320.299C1023.57,321.196 1028.34,324.198 1030.56,330.62C1031.15,332.298 1031.86,333.933 1032.36,335.639C1034.77,343.851 1035.03,352.355 1035.04,360.808C1035.1,457.098 1035.08,553.383 1035.08,649.642ZM1075.2,733.729L1064.37,733.729L1054.62,716.127C1051.91,711.252 1048.93,705.362 1046.7,700.015L1046.5,700.082C1046.77,706.107 1046.9,712.539 1046.9,719.985L1046.9,733.728L1037.42,733.728L1037.42,688.1L1049.47,688.1L1058.95,704.822C1061.66,709.629 1064.37,715.315 1066.4,720.46L1066.6,720.46C1065.93,714.436 1065.72,708.274 1065.72,701.438L1065.72,688.1L1075.2,688.1L1075.2,733.729L1075.2,733.729ZM1122.25,731.63C1119.07,732.713 1113.04,734.202 1107.02,734.202C1098.69,734.202 1092.67,732.103 1088.47,728.042C1084.27,724.115 1081.97,718.157 1082.04,711.456C1082.11,696.291 1093.14,687.626 1108.1,687.626C1113.99,687.626 1118.53,688.776 1120.76,689.859L1118.6,698.119C1116.09,697.036 1112.98,696.155 1107.97,696.155C1099.37,696.155 1092.87,701.03 1092.87,710.914C1092.87,720.324 1098.76,725.875 1107.22,725.875C1109.59,725.875 1111.49,725.604 1112.3,725.198L1112.3,715.652L1105.26,715.652L1105.26,707.596L1122.25,707.596L1122.25,731.63L1122.25,731.63Z" style="fill-rule:nonzero;"/>
                </g>
            </g>
            <g id="Chữ-mới" serif:id="Chữ mới" transform="matrix(0.337396,0,0,0.394647,139.635,63.9904)">
                <rect x="189.297" y="695.818" width="845.784" height="86.799"/>
            </g>
            <g transform="matrix(0.407143,0,0,0.407143,32.8656,65.1114)">
                <text x="535.037px" y="734.473px" style="font-family:'Arial-BoldMT', 'Arial', sans-serif;font-weight:700;font-size:64.739px;fill:rgb(235,235,235);">NHANH &amp; ĐẸP</text>
            </g>
        </g>
    </g>
</svg>
